<?xml version="1.0" encoding="UTF-8"?>
<svg xmlns="http://www.w3.org/2000/svg" version="1.1" viewBox="0 0 160 160">
  <!-- Generator: Adobe Illustrator 29.7.1, SVG Export Plug-In . SVG Version: 2.1.1 Build 8)  -->
  <defs>
    <style>
      .st0 {
        stroke-width: 2.5px;
      }

      .st0, .st1 {
        fill: #fff;
      }

      .st0, .st2 {
        stroke: #000;
        stroke-miterlimit: 10;
      }

      .st2 {
        fill: none;
        stroke-width: 2px;
      }

      .st3 {
        isolation: isolate;
      }

      .st4 {
        mix-blend-mode: multiply;
      }

      .st5 {
        fill: #ccc;
      }
    </style>
  </defs>
  <g class="st3">
    <g id="Head">
      <g>
        <path class="st0" d="M114.5,81.5c1.83,16.47-16.5,30-35,30s-36.83-13.53-35-30c2-18,16.5-29,35-29s33,11,35,29Z"/>
        <g class="st4">
          <path class="st5" d="M114.88,82.33c-1.34-12.29-8.64-21.16-19.02-25.23,7.35,4.74,12.33,12.43,13.41,22.36,1.71,15.74-15.43,28.67-32.74,28.67-4.84,0-11.12-.33-15.53-2.13,1.55,3.68,14,6,21,6,17.31,0,34.59-13.93,32.88-29.67Z"/>
        </g>
      </g>
    </g>
    <g id="Eyes_and_Nose">
      <g>
        <ellipse cx="61" cy="79.5" rx="7" ry="8.5"/>
        <ellipse cx="97" cy="79.5" rx="7" ry="8.5"/>
        <line class="st2" x1="68" y1="80" x2="90" y2="80"/>
      </g>
    </g>
    <g id="Left_Eye">
      <ellipse class="st1" cx="60.57" cy="78.33" rx="2.45" ry="1.52" transform="translate(-26.14 126.14) rotate(-81.16)"/>
    </g>
    <g id="Right_Eye">
      <ellipse class="st1" cx="96.57" cy="78.33" rx="2.45" ry="1.52" transform="translate(4.32 161.72) rotate(-81.16)"/>
    </g>
  </g>
</svg>